<?xml version="1.0" encoding="UTF-8" standalone="no"?>
<!DOCTYPE svg PUBLIC "-//W3C//DTD SVG 1.1//EN" "http://www.w3.org/Graphics/SVG/1.1/DTD/svg11.dtd">
<svg width="100%" height="100%" viewBox="0 0 502 65" version="1.1" xmlns="http://www.w3.org/2000/svg" xmlns:xlink="http://www.w3.org/1999/xlink" xml:space="preserve" xmlns:serif="http://www.serif.com/" style="fill-rule:evenodd;clip-rule:evenodd;stroke-linejoin:round;stroke-miterlimit:2;">
    <g transform="matrix(7.17297,0,0,7.17297,-1569.6,-1729.66)">
        <g transform="matrix(12,0,0,12,217.921,249.811)">
            <path d="M0.075,-0L0.244,-0L0.244,-0.7L0.075,-0.7L0.075,-0ZM0.377,-0.141L0.377,-0L0.692,-0L0.692,-0.141L0.377,-0.141Z" style="fill-rule:nonzero;"/>
        </g>
        <g transform="matrix(12,0,0,12,226.669,249.811)">
            <path d="M0.855,-0.35C0.855,-0.6 0.639,-0.723 0.456,-0.723C0.272,-0.723 0.057,-0.6 0.057,-0.35C0.057,-0.1 0.272,0.023 0.456,0.023C0.639,0.023 0.855,-0.1 0.855,-0.35ZM0.682,-0.35C0.682,-0.207 0.56,-0.138 0.456,-0.138C0.351,-0.138 0.229,-0.207 0.229,-0.35C0.229,-0.493 0.351,-0.563 0.456,-0.563C0.56,-0.563 0.682,-0.493 0.682,-0.35ZM0.378,-0.349C0.378,-0.302 0.408,-0.272 0.456,-0.272C0.503,-0.272 0.533,-0.302 0.533,-0.349C0.533,-0.396 0.503,-0.427 0.456,-0.427C0.408,-0.427 0.378,-0.396 0.378,-0.349Z" style="fill-rule:nonzero;"/>
        </g>
        <g transform="matrix(12,0,0,12,237.601,249.811)">
            <path d="M0.855,-0.35C0.855,-0.6 0.639,-0.723 0.456,-0.723C0.272,-0.723 0.057,-0.6 0.057,-0.35C0.057,-0.1 0.272,0.023 0.456,0.023C0.639,0.023 0.855,-0.1 0.855,-0.35ZM0.682,-0.35C0.682,-0.207 0.56,-0.138 0.456,-0.138C0.351,-0.138 0.229,-0.207 0.229,-0.35C0.229,-0.493 0.351,-0.563 0.456,-0.563C0.56,-0.563 0.682,-0.493 0.682,-0.35ZM0.378,-0.349C0.378,-0.302 0.408,-0.272 0.456,-0.272C0.503,-0.272 0.533,-0.302 0.533,-0.349C0.533,-0.396 0.503,-0.427 0.456,-0.427C0.408,-0.427 0.378,-0.396 0.378,-0.349Z" style="fill-rule:nonzero;"/>
        </g>
        <g transform="matrix(12,0,0,12,248.533,249.811)">
            <path d="M0.075,-0L0.244,-0L0.244,-0.415L0.481,-0L0.649,-0L0.244,-0.7L0.075,-0.7L0.075,-0ZM0.579,-0.339L0.664,-0.202L0.786,-0.415L0.786,-0L0.955,-0L0.955,-0.7L0.786,-0.7L0.579,-0.339Z" style="fill-rule:nonzero;"/>
        </g>
        <g transform="matrix(12,0,0,12,260.881,249.811)">
            <path d="M0.454,-0.244C0.607,-0.244 0.684,-0.358 0.684,-0.472C0.684,-0.586 0.607,-0.7 0.454,-0.7L0.075,-0.7L0.075,-0.559L0.436,-0.559C0.492,-0.559 0.52,-0.515 0.52,-0.472C0.52,-0.428 0.492,-0.385 0.436,-0.385L0.075,-0.385L0.075,-0.244L0.454,-0.244Z" style="fill-rule:nonzero;"/>
        </g>
        <g transform="matrix(12,0,0,12,269.737,249.811)">
            <path d="M0.075,-0.7L0.075,-0.559L0.7,-0.559L0.7,-0.7L0.075,-0.7ZM0.075,-0.42L0.075,-0.28L0.7,-0.28L0.7,-0.42L0.075,-0.42ZM0.078,-0.141L0.078,-0L0.7,-0L0.7,-0.141L0.078,-0.141Z" style="fill-rule:nonzero;"/>
        </g>
        <g transform="matrix(12,0,0,12,278.989,249.811)">
            <path d="M0.807,-0L0.521,-0.361L0.781,-0.7L0.582,-0.7L0.417,-0.492L0.252,-0.7L0.052,-0.7L0.59,-0L0.807,-0ZM0.345,-0.137L0.239,-0.269L0.027,-0L0.244,-0L0.345,-0.137Z" style="fill-rule:nonzero;"/>
        </g>
    </g>
</svg>
